HIERARCHY
ROOT Hips
{
	OFFSET 0.000000 71.427986 0.000000
	CHANNELS 6 Xposition Yposition Zposition Xrotation Yrotation Zrotation
	JOINT Pelvis
	{
		OFFSET 0.000000 0.000000 0.000000
		CHANNELS 3 Xrotation Yrotation Zrotation
		JOINT LeftUpLeg
		{
			OFFSET 6.797100 -2.508499 -1.318700
			CHANNELS 3 Xrotation Yrotation Zrotation
			JOINT LeftLeg
			{
				OFFSET 0.069008 -29.241863 0.690200
				CHANNELS 3 Xrotation Yrotation Zrotation
				JOINT LeftFoot
				{
					OFFSET -0.069008 -29.568123 -0.266800
					CHANNELS 3 Xrotation Yrotation Zrotation
					JOINT LeftToeBase
					{
						OFFSET 3.145500 -8.631000 16.059900
						CHANNELS 3 Xrotation Yrotation Zrotation
						End Site
						{
							OFFSET 0.000000 18.501587 0.000000
						}
					}
				}
			}
			JOINT Left_ShortSleeve
			{
				OFFSET 0.265923 -10.480953 1.153800
				CHANNELS 3 Xrotation Yrotation Zrotation
				End Site
				{
					OFFSET 1.725763 19.823879 0.000000
				}
			}
		}
		JOINT RightUpLeg
		{
			OFFSET -6.797100 -2.508499 -1.318700
			CHANNELS 3 Xrotation Yrotation Zrotation
			JOINT RightLeg
			{
				OFFSET -0.082453 -29.241932 0.688000
				CHANNELS 3 Xrotation Yrotation Zrotation
				JOINT RightFoot
				{
					OFFSET 0.082453 -29.568058 -0.264600
					CHANNELS 3 Xrotation Yrotation Zrotation
					JOINT RightToeBase
					{
						OFFSET -3.115300 -8.682800 16.113400
						CHANNELS 3 Xrotation Yrotation Zrotation
						End Site
						{
							OFFSET 0.000000 18.567114 0.000000
						}
					}
				}
			}
			JOINT Right_ShortSleeve
			{
				OFFSET -0.265923 -10.480953 1.153800
				CHANNELS 3 Xrotation Yrotation Zrotation
				End Site
				{
					OFFSET -1.725766 19.823910 0.000000
				}
			}
		}
	}
	JOINT Spine
	{
		OFFSET 0.000000 13.368103 0.470500
		CHANNELS 3 Xrotation Yrotation Zrotation
		JOINT Spine1
		{
			OFFSET 0.147000 13.837402 0.538800
			CHANNELS 3 Xrotation Yrotation Zrotation
			JOINT Spine2
			{
				OFFSET 0.168000 16.242897 -1.435500
				CHANNELS 3 Xrotation Yrotation Zrotation
				JOINT Neck
				{
					OFFSET 0.217200 18.631500 -1.679100
					CHANNELS 3 Xrotation Yrotation Zrotation
					JOINT Head
					{
						OFFSET 0.000000 6.599396 1.385900
						CHANNELS 3 Xrotation Yrotation Zrotation
						JOINT Hat
						{
							OFFSET -0.532200 27.220596 -10.096100
							CHANNELS 3 Xrotation Yrotation Zrotation
							End Site
							{
								OFFSET 0.000000 22.029861 0.000000
							}
						}
						JOINT HairD
						{
							OFFSET -10.777400 17.437393 -1.325900
							CHANNELS 3 Xrotation Yrotation Zrotation
							JOINT HairD1
							{
								OFFSET -3.290299 -11.051193 1.062200
								CHANNELS 3 Xrotation Yrotation Zrotation
								End Site
								{
									OFFSET 0.000000 11.579437 0.000000
								}
							}
						}
						JOINT HairB
						{
							OFFSET -10.777400 17.437393 1.467900
							CHANNELS 3 Xrotation Yrotation Zrotation
							JOINT HairB1
							{
								OFFSET -1.561200 -12.956299 3.590200
								CHANNELS 3 Xrotation Yrotation Zrotation
								End Site
								{
									OFFSET 0.000000 13.534866 0.000000
								}
							}
						}
						JOINT HairA
						{
							OFFSET 9.713100 17.437393 1.467900
							CHANNELS 3 Xrotation Yrotation Zrotation
							JOINT HairA1
							{
								OFFSET 1.561200 -12.956299 3.590200
								CHANNELS 3 Xrotation Yrotation Zrotation
								End Site
								{
									OFFSET 0.000000 13.534866 0.000000
								}
							}
						}
						JOINT HairC
						{
							OFFSET 9.713100 17.437393 -1.325900
							CHANNELS 3 Xrotation Yrotation Zrotation
							JOINT HairC1
							{
								OFFSET 3.290300 -11.051193 1.062200
								CHANNELS 3 Xrotation Yrotation Zrotation
								End Site
								{
									OFFSET 0.000000 11.579437 0.000000
								}
							}
						}
					}
				}
				JOINT LeftShoulder
				{
					OFFSET 5.101800 15.108002 -2.763700
					CHANNELS 3 Xrotation Yrotation Zrotation
					JOINT LeftArm
					{
						OFFSET 9.825497 2.506317 -1.597400
						CHANNELS 3 Xrotation Yrotation Zrotation
						JOINT LeftForeArm
						{
							OFFSET 21.966244 0.000000 0.000000
							CHANNELS 3 Xrotation Yrotation Zrotation
							JOINT LeftHand
							{
								OFFSET 33.879036 0.000000 0.000000
								CHANNELS 3 Xrotation Yrotation Zrotation
								JOINT LeftHandThumb1
								{
									OFFSET 6.715286 -2.359680 3.363841
									CHANNELS 3 Xrotation Yrotation Zrotation
									JOINT LeftHandThumb2
									{
										OFFSET 2.507072 -1.447464 1.447461
										CHANNELS 3 Xrotation Yrotation Zrotation
										JOINT LeftHandThumb3
										{
											OFFSET 2.898338 -1.673355 1.673357
											CHANNELS 3 Xrotation Yrotation Zrotation
											End Site
											{
												OFFSET -0.295959 3.727692 -0.131651
											}
										}
									}
								}
								JOINT LeftHandIndex1
								{
									OFFSET 14.190811 -0.254547 3.840278
									CHANNELS 3 Xrotation Yrotation Zrotation
									JOINT LeftHandIndex2
									{
										OFFSET 3.551727 0.000000 -0.000000
										CHANNELS 3 Xrotation Yrotation Zrotation
										JOINT LeftHandIndex3
										{
											OFFSET 2.894196 0.000000 0.000000
											CHANNELS 3 Xrotation Yrotation Zrotation
											End Site
											{
												OFFSET -1.000603 2.690872 0.366626
											}
										}
									}
								}
								JOINT LeftHandMiddle1
								{
									OFFSET 13.776489 0.000000 0.000000
									CHANNELS 3 Xrotation Yrotation Zrotation
									JOINT LeftHandMiddle2
									{
										OFFSET 3.438232 0.000000 0.000000
										CHANNELS 3 Xrotation Yrotation Zrotation
										JOINT LeftHandMiddle3
										{
											OFFSET 3.691551 0.000000 0.000000
											CHANNELS 3 Xrotation Yrotation Zrotation
											End Site
											{
												OFFSET -1.082298 3.499527 0.457670
											}
										}
									}
								}
								JOINT LeftHandRing1
								{
									OFFSET 13.966164 -0.268127 -3.067488
									CHANNELS 3 Xrotation Yrotation Zrotation
									JOINT LeftHandRing2
									{
										OFFSET 3.162567 0.000000 0.000000
										CHANNELS 3 Xrotation Yrotation Zrotation
										JOINT LeftHandRing3
										{
											OFFSET 3.324348 0.000000 0.000000
											CHANNELS 3 Xrotation Yrotation Zrotation
											End Site
											{
												OFFSET -0.861900 3.184998 0.405154
											}
										}
									}
								}
								JOINT LeftHandPinky1
								{
									OFFSET 13.131393 -0.168503 -5.746925
									CHANNELS 3 Xrotation Yrotation Zrotation
									JOINT LeftHandPinky2
									{
										OFFSET 2.849182 0.000000 0.000000
										CHANNELS 3 Xrotation Yrotation Zrotation
										JOINT LeftHandPinky3
										{
											OFFSET 2.805038 0.000000 0.000000
											CHANNELS 3 Xrotation Yrotation Zrotation
											End Site
											{
												OFFSET -0.882500 2.642609 0.325652
											}
										}
									}
								}
							}
							JOINT Left_Sleeve
							{
								OFFSET 6.592125 -0.646545 0.805568
								CHANNELS 3 Xrotation Yrotation Zrotation
								End Site
								{
									OFFSET -0.000179 20.275787 -0.000000
								}
							}
						}
					}
				}
				JOINT RightShoulder
				{
					OFFSET -5.731700 15.108002 -2.763700
					CHANNELS 3 Xrotation Yrotation Zrotation
					JOINT RightArm
					{
						OFFSET -9.825497 2.506317 -1.597400
						CHANNELS 3 Xrotation Yrotation Zrotation
						JOINT RightForeArm
						{
							OFFSET -21.966242 0.000000 0.000000
							CHANNELS 3 Xrotation Yrotation Zrotation
							JOINT RightHand
							{
								OFFSET -33.879032 0.000000 0.000000
								CHANNELS 3 Xrotation Yrotation Zrotation
								JOINT RightHandThumb1
								{
									OFFSET -6.715286 -2.359680 3.363841
									CHANNELS 3 Xrotation Yrotation Zrotation
									JOINT RightHandThumb2
									{
										OFFSET -2.507072 -1.447464 1.447461
										CHANNELS 3 Xrotation Yrotation Zrotation
										JOINT RightHandThumb3
										{
											OFFSET -2.898338 -1.673355 1.673357
											CHANNELS 3 Xrotation Yrotation Zrotation
											End Site
											{
												OFFSET 0.295959 3.727692 -0.131651
											}
										}
									}
								}
								JOINT RightHandIndex1
								{
									OFFSET -14.190811 -0.254547 3.840278
									CHANNELS 3 Xrotation Yrotation Zrotation
									JOINT RightHandIndex2
									{
										OFFSET -3.551727 0.000000 -0.000000
										CHANNELS 3 Xrotation Yrotation Zrotation
										JOINT RightHandIndex3
										{
											OFFSET -2.894196 0.000000 0.000000
											CHANNELS 3 Xrotation Yrotation Zrotation
											End Site
											{
												OFFSET 1.000603 2.690872 0.366626
											}
										}
									}
								}
								JOINT RightHandMiddle1
								{
									OFFSET -13.776489 0.000000 0.000000
									CHANNELS 3 Xrotation Yrotation Zrotation
									JOINT RightHandMiddle2
									{
										OFFSET -3.438232 0.000000 0.000000
										CHANNELS 3 Xrotation Yrotation Zrotation
										JOINT RightHandMiddle3
										{
											OFFSET -3.691551 0.000000 0.000000
											CHANNELS 3 Xrotation Yrotation Zrotation
											End Site
											{
												OFFSET 1.082298 3.499527 0.457670
											}
										}
									}
								}
								JOINT RightHandRing1
								{
									OFFSET -13.966164 -0.268127 -3.067488
									CHANNELS 3 Xrotation Yrotation Zrotation
									JOINT RightHandRing2
									{
										OFFSET -3.162567 0.000000 0.000000
										CHANNELS 3 Xrotation Yrotation Zrotation
										JOINT RightHandRing3
										{
											OFFSET -3.324348 0.000000 0.000000
											CHANNELS 3 Xrotation Yrotation Zrotation
											End Site
											{
												OFFSET 0.861900 3.184998 0.405154
											}
										}
									}
								}
								JOINT RightHandPinky1
								{
									OFFSET -13.131393 -0.168503 -5.746925
									CHANNELS 3 Xrotation Yrotation Zrotation
									JOINT RightHandPinky2
									{
										OFFSET -2.849182 0.000000 0.000000
										CHANNELS 3 Xrotation Yrotation Zrotation
										JOINT RightHandPinky3
										{
											OFFSET -2.805038 0.000000 0.000000
											CHANNELS 3 Xrotation Yrotation Zrotation
											End Site
											{
												OFFSET 0.882500 2.642609 0.325652
											}
										}
									}
								}
							}
							JOINT Right_Sleeve
							{
								OFFSET -6.592125 -0.646545 0.805568
								CHANNELS 3 Xrotation Yrotation Zrotation
								End Site
								{
									OFFSET 0.000179 20.275787 -0.000000
								}
							}
						}
					}
				}
				JOINT Bind_Right_JacketString
				{
					OFFSET -3.534800 11.969597 7.200700
					CHANNELS 3 Xrotation Yrotation Zrotation
					JOINT Bind_Right_JacketString1
					{
						OFFSET -0.319900 -6.102600 2.794100
						CHANNELS 3 Xrotation Yrotation Zrotation
						End Site
						{
							OFFSET 0.000000 6.719452 0.000000
						}
					}
				}
				JOINT Bind_Left_JacketString
				{
					OFFSET 2.904800 11.969597 7.200700
					CHANNELS 3 Xrotation Yrotation Zrotation
					JOINT Bind_Left_JacketString1
					{
						OFFSET 0.364800 -5.904503 3.186800
						CHANNELS 3 Xrotation Yrotation Zrotation
						End Site
						{
							OFFSET 0.000000 6.719513 0.000000
						}
					}
				}
				JOINT HairE
				{
					OFFSET 5.915200 17.612701 -11.592200
					CHANNELS 3 Xrotation Yrotation Zrotation
					JOINT HairE1
					{
						OFFSET 0.289200 -7.171898 -1.284500
						CHANNELS 3 Xrotation Yrotation Zrotation
						End Site
						{
							OFFSET 0.000000 7.291756 0.000000
						}
					}
				}
				JOINT HairF
				{
					OFFSET -0.864800 17.612701 -11.592200
					CHANNELS 3 Xrotation Yrotation Zrotation
					JOINT HairF1
					{
						OFFSET 0.000000 -14.087097 -2.127501
						CHANNELS 3 Xrotation Yrotation Zrotation
						End Site
						{
							OFFSET 0.000000 14.246841 0.000000
						}
					}
				}
				JOINT HairG
				{
					OFFSET -8.087700 17.612701 -11.592200
					CHANNELS 3 Xrotation Yrotation Zrotation
					JOINT HairG1
					{
						OFFSET -0.293600 -6.081398 -0.910100
						CHANNELS 3 Xrotation Yrotation Zrotation
						End Site
						{
							OFFSET 0.000000 6.156120 0.000000
						}
					}
				}
			}
		}
	}
	JOINT Pouch
	{
		OFFSET 0.000000 4.394501 10.847300
		CHANNELS 3 Xrotation Yrotation Zrotation
		End Site
		{
			OFFSET 0.000000 21.880577 0.000000
		}
	}
	JOINT Bag
	{
		OFFSET -13.229000 4.813004 -0.593300
		CHANNELS 3 Xrotation Yrotation Zrotation
		End Site
		{
			OFFSET 0.000000 21.880577 0.000000
		}
	}
	JOINT OccupyGuyFacialAnim_Joint
	{
		OFFSET 1.000000 -70.206398 -1.655000
		CHANNELS 3 Xrotation Yrotation Zrotation
		End Site
		{
			OFFSET 0.000000 21.880577 0.000000
		}
	}
}
MOTION
Frames: 4
Frame Time: 0.033333
-89.973991 67.852493 57.563343 -178.585828 -171.045012 -182.938079 -0.000000 -0.000000 -0.000000 -30.421731 9.359914 -1.585930 63.766120 -5.941253 -2.985576 -9.198686 -1.048058 10.287826 0.000001 0.000000 -0.000001 -0.000001 0.000000 -0.000000 -16.011903 -10.927182 -5.915166 33.851234 9.969435 0.157432 -19.572117 0.345016 2.643829 -0.000000 -0.000000 0.000000 -0.000000 0.000000 -0.000000 7.151643 -4.842360 0.895668 3.525664 -1.413510 -0.140324 3.531579 -1.412307 -0.099437 -11.182722 0.438186 2.341052 -13.035270 15.193689 -1.501218 -0.000001 -0.000000 -0.000000 -0.000001 -0.000000 -0.000000 -0.000001 -0.000000 -0.000000 -0.000001 -0.000000 0.000000 -0.000001 0.000000 -0.000000 -0.000001 -0.000000 0.000000 -0.000001 0.000000 -0.000000 -0.000001 -0.000000 -0.000000 -0.000001 -0.000000 -0.000000 1.807812 -2.390868 -5.290075 8.858159 -13.566082 -72.521221 -0.000014 -18.290820 0.000010 -36.541297 17.004203 8.491582 -5.267026 -3.536815 5.535552 7.527208 16.596827 2.055900 -0.000000 -0.000000 -0.000001 0.085383 2.860676 -4.889426 0.073916 0.928696 -9.101575 0.000000 -0.000003 0.000001 0.184215 3.541307 -11.610072 0.213872 1.569992 -15.513158 0.000001 0.000001 -0.000001 0.266671 3.887944 -15.092689 0.315306 1.897776 -18.864848 -0.000001 0.000000 -0.000001 0.355179 4.184061 -18.114439 0.413547 2.163922 -21.636815 0.000001 -0.000001 -0.000001 0.000004 0.000000 0.000000 0.865045 8.946738 15.084871 -2.979736 2.811174 67.894314 0.000006 18.997215 -0.000015 -12.154680 -1.697119 -9.284977 -1.986182 -5.435671 -3.761595 8.766483 -20.697676 -3.062061 -0.000000 0.000000 0.000002 2.057130 -6.108273 55.293598 5.419329 -4.594509 99.429413 -0.000002 0.000000 0.000002 2.592842 -6.426551 62.973436 4.946634 -4.648202 93.567328 0.000001 -0.000001 -0.000001 2.854994 -6.549323 66.538576 4.919149 -4.649838 93.228230 -0.000000 -0.000001 0.000001 1.542120 -5.696820 47.168197 2.898944 -4.313213 67.797352 -0.000001 0.000002 -0.000001 -0.000000 -0.000000 -0.000000 -0.000001 0.000002 0.000000 0.000001 0.000003 -0.000000 -0.000001 0.000002 -0.000000 -0.000001 0.000002 -0.000000 -0.000001 0.000002 0.000000 0.000001 0.000003 -0.000000 -0.000001 0.000002 -0.000000 -0.000001 0.000002 -0.000000 -0.000001 0.000002 0.000000 0.000001 0.000003 -0.000000 -0.000000 -0.000000 -0.000000 -0.000000 -0.000000 -0.000000 -0.000000 -0.000000 -0.000000 
-91.143295 68.293068 60.133659 -175.797595 -170.862305 -181.963056 -0.000000 0.000001 -0.000000 -36.891423 9.104068 -1.611234 53.461004 -2.150258 -6.113520 -6.587119 -0.509023 4.887834 0.000001 0.000000 0.000001 -0.000001 -0.000000 -0.000000 -14.262800 -11.411958 -5.660448 30.160305 9.961510 0.738082 -20.625793 0.933565 2.041375 0.000000 0.000001 0.000000 0.000001 -0.000001 -0.000000 4.823546 -3.474239 -0.057383 3.261949 -1.110455 -0.162826 3.270350 -1.108229 -0.129498 -11.083285 0.363306 2.224081 -12.827128 13.216426 -1.768211 -0.000001 -0.000000 0.000001 -0.000001 -0.000000 0.000001 -0.000001 -0.000000 0.000000 -0.000001 -0.000000 0.000000 0.000000 -0.000000 0.000000 -0.000001 -0.000000 0.000000 0.000000 -0.000000 0.000000 -0.000001 -0.000000 0.000001 -0.000001 -0.000000 0.000001 1.828362 -1.954369 -5.323551 13.694195 -10.769526 -73.099601 0.000009 -18.318103 0.000005 -37.144375 16.091878 3.294222 -5.251626 -3.480381 5.554676 7.352655 16.149079 1.980762 0.000001 0.000001 0.000001 0.077230 2.754089 -3.845843 0.067678 0.888840 -8.707799 0.000001 -0.000001 -0.000000 0.158139 3.406629 -10.269991 0.203504 1.532199 -15.130460 0.000001 -0.000001 0.000000 0.230251 3.746218 -13.662479 0.304038 1.864485 -18.521434 -0.000003 0.000000 -0.000001 0.304426 4.021377 -16.448176 0.401143 2.132367 -21.305527 -0.000000 -0.000000 0.000001 0.000001 0.000000 0.000000 0.922615 8.567520 14.562368 -2.931032 3.077218 67.568439 -0.000002 20.385075 0.000001 -12.668466 -1.823999 -7.949838 -1.986187 -5.435672 -3.761594 8.766487 -20.697674 -3.062060 -0.000001 -0.000002 -0.000001 2.057128 -6.108273 55.293592 5.419327 -4.594511 99.429400 -0.000000 -0.000000 0.000002 2.592839 -6.426551 62.973429 4.946635 -4.648202 93.567335 0.000001 -0.000000 -0.000004 2.854990 -6.549324 66.538576 4.919151 -4.649837 93.228223 0.000000 0.000000 0.000004 1.542118 -5.696820 47.168200 2.898944 -4.313214 67.797352 -0.000000 0.000002 -0.000001 0.000000 -0.000000 -0.000001 -0.000000 0.000001 0.000000 0.000002 -0.000001 0.000000 -0.000000 0.000001 0.000000 -0.000000 0.000001 0.000000 -0.000000 0.000001 0.000000 0.000002 -0.000001 0.000000 -0.000000 0.000001 0.000000 -0.000000 0.000001 0.000000 -0.000000 0.000001 0.000000 0.000002 -0.000001 0.000000 -0.000000 0.000001 -0.000000 -0.000000 0.000001 -0.000000 -0.000000 0.000001 -0.000000 
-92.196167 68.177696 62.805912 -172.955799 -170.406649 -181.497415 -0.000000 0.000001 -0.000000 -40.817272 7.869834 -2.406332 40.854380 1.960504 -7.940162 -7.190089 -0.557980 4.969288 -0.000000 -0.000000 0.000000 0.000002 -0.000001 -0.000001 -13.385950 -11.611214 -5.224336 28.210573 9.890261 1.441611 -22.148714 1.656645 1.498093 0.000000 -0.000001 0.000000 -0.000000 0.000000 -0.000000 2.680696 -2.009027 -0.156550 3.099720 -0.817886 -0.292425 3.109682 -0.817025 -0.263661 -11.189172 0.286511 2.049176 -13.227063 11.783716 -2.052972 -0.000000 0.000000 -0.000000 -0.000000 0.000000 -0.000000 -0.000000 0.000000 -0.000000 -0.000000 0.000000 -0.000000 0.000001 0.000000 -0.000000 -0.000000 0.000000 -0.000000 0.000001 0.000000 -0.000000 -0.000000 0.000000 -0.000000 -0.000000 0.000000 -0.000000 1.842878 -1.574141 -5.475626 18.279632 -8.440212 -73.162104 0.000007 -18.561669 0.000003 -38.860634 14.069417 -1.150147 -5.258793 -3.506792 5.545949 7.389503 16.243576 1.996749 -0.000001 0.000003 0.000001 0.077279 2.754882 -3.853649 0.082858 0.982854 -9.637370 0.000001 -0.000001 -0.000000 0.155500 3.392018 -10.124870 0.228968 1.623402 -16.055208 -0.000001 0.000000 0.000002 0.226181 3.729415 -13.493502 0.334220 1.952238 -19.428041 -0.000001 -0.000003 0.000002 0.295386 3.990515 -16.133740 0.435325 2.218025 -22.206712 0.000000 0.000000 -0.000001 -0.000000 0.000000 -0.000000 0.985006 8.183737 13.816711 -3.374051 3.782356 67.184254 0.000002 21.466562 -0.000020 -13.320722 -2.348073 -7.080179 -1.986184 -5.435672 -3.761595 8.766486 -20.697674 -3.062061 -0.000001 0.000002 0.000003 2.057130 -6.108274 55.293592 5.419327 -4.594509 99.429407 0.000000 -0.000000 0.000002 2.592841 -6.426551 62.973429 4.946634 -4.648202 93.567328 0.000001 0.000000 0.000003 2.854992 -6.549323 66.538576 4.919148 -4.649837 93.228209 0.000001 -0.000001 0.000003 1.542119 -5.696821 47.168200 2.898945 -4.313213 67.797346 -0.000001 0.000001 0.000001 0.000000 -0.000001 0.000001 0.000000 0.000000 -0.000000 0.000000 0.000001 -0.000001 0.000000 0.000000 -0.000000 0.000000 0.000000 -0.000000 0.000000 0.000000 -0.000000 0.000000 0.000001 -0.000001 0.000000 0.000000 -0.000000 0.000000 0.000000 -0.000000 0.000000 0.000000 -0.000000 0.000000 0.000001 -0.000001 -0.000000 0.000001 -0.000000 -0.000000 0.000001 -0.000000 -0.000000 0.000001 -0.000000 
-93.134331 67.689293 65.744614 -170.420706 -169.746156 -181.491951 0.000001 -0.000001 0.000000 -43.423508 5.197670 -3.341293 26.794585 6.513548 -6.956978 -8.185037 -0.467624 3.885888 -0.000000 -0.000000 0.000000 0.000002 -0.000001 -0.000001 -12.342549 -11.634210 -4.611466 27.244378 9.732104 2.091574 -24.556168 2.409984 1.232269 -0.000000 -0.000001 -0.000000 0.000000 -0.000003 -0.000001 0.774874 -0.504247 0.402950 3.106634 -0.524036 -0.437717 3.119775 -0.525158 -0.409617 -11.403036 0.235540 1.835729 -14.166173 10.617827 -2.306321 -0.000001 0.000000 -0.000000 -0.000001 0.000000 -0.000000 -0.000001 0.000000 -0.000001 -0.000001 0.000000 -0.000000 0.000000 -0.000000 -0.000000 -0.000001 0.000000 -0.000000 0.000000 -0.000000 -0.000000 -0.000001 0.000000 -0.000000 -0.000001 0.000000 -0.000000 1.842881 -1.305843 -5.993570 22.099343 -6.363083 -72.931653 0.000003 -19.343137 -0.000004 -41.052480 11.531620 -4.212682 -5.287978 -3.613153 5.509046 7.594551 16.769778 2.084625 -0.000001 0.000001 0.000001 0.083652 2.840126 -4.688072 0.122131 1.191176 -11.706947 0.000001 0.000002 -0.000002 0.170055 3.470245 -10.902221 0.290616 1.823957 -18.104555 -0.000001 -0.000001 0.000000 0.245775 3.808446 -14.289248 0.404803 2.141747 -21.403904 0.000001 0.000000 -0.000001 0.315880 4.059594 -16.838243 0.514093 2.401742 -24.160285 -0.000001 -0.000001 0.000005 0.000000 0.000000 0.000001 1.025589 8.043457 12.991154 -3.784374 4.575933 66.668281 -0.000002 22.982453 0.000010 -14.263306 -3.696111 -7.198986 -1.986181 -5.435672 -3.761594 8.766486 -20.697673 -3.062062 0.000000 -0.000001 -0.000000 2.057133 -6.108272 55.293592 5.419328 -4.594509 99.429413 -0.000001 -0.000000 0.000000 2.592844 -6.426551 62.973436 4.946636 -4.648201 93.567322 0.000001 -0.000001 0.000003 2.854993 -6.549323 66.538576 4.919149 -4.649839 93.228216 0.000001 0.000000 0.000002 1.542119 -5.696819 47.168204 2.898945 -4.313214 67.797346 -0.000000 0.000000 0.000001 -0.000001 0.000000 -0.000001 -0.000000 0.000001 -0.000000 -0.000000 0.000000 -0.000000 -0.000000 0.000001 -0.000000 -0.000000 0.000001 -0.000000 -0.000000 0.000001 -0.000000 -0.000000 0.000000 -0.000000 -0.000000 0.000001 -0.000000 -0.000000 0.000001 -0.000000 -0.000000 0.000001 -0.000000 -0.000000 0.000000 -0.000000 0.000001 -0.000001 0.000000 0.000001 -0.000001 0.000000 0.000001 -0.000001 0.000000 
